<mxfile host="app.diagrams.net" agent="Mozilla/5.0 (Windows NT 10.0; Win64; x64) AppleWebKit/537.36 (KHTML, like Gecko) Chrome/127.0.0.0 Safari/537.36" version="24.7.6">
  <diagram name="Page-1" id="V_YeHFoTBKTuIHgPI9a_">
    <mxGraphModel dx="1562" dy="346" grid="1" gridSize="10" guides="1" tooltips="1" connect="1" arrows="1" fold="1" page="1" pageScale="1" pageWidth="850" pageHeight="1100" math="0" shadow="0">
      <root>
        <mxCell id="0" />
        <mxCell id="1" parent="0" />
        <mxCell id="1aZD1OsogRXmvRE20P_B-30" style="edgeStyle=orthogonalEdgeStyle;rounded=0;orthogonalLoop=1;jettySize=auto;html=1;" parent="1" source="1aZD1OsogRXmvRE20P_B-1" target="1aZD1OsogRXmvRE20P_B-4" edge="1">
          <mxGeometry relative="1" as="geometry" />
        </mxCell>
        <mxCell id="1aZD1OsogRXmvRE20P_B-38" style="edgeStyle=orthogonalEdgeStyle;rounded=0;orthogonalLoop=1;jettySize=auto;html=1;entryX=0.75;entryY=0;entryDx=0;entryDy=0;" parent="1" source="1aZD1OsogRXmvRE20P_B-1" target="1aZD1OsogRXmvRE20P_B-4" edge="1">
          <mxGeometry relative="1" as="geometry">
            <Array as="points">
              <mxPoint x="644" y="270" />
            </Array>
          </mxGeometry>
        </mxCell>
        <mxCell id="yD9X1X1SuLmKjkcs-DvC-9" style="edgeStyle=orthogonalEdgeStyle;rounded=0;orthogonalLoop=1;jettySize=auto;html=1;entryX=1;entryY=0.25;entryDx=0;entryDy=0;" parent="1" edge="1">
          <mxGeometry relative="1" as="geometry">
            <mxPoint x="422.4694117647061" y="238.71" as="sourcePoint" />
            <mxPoint x="664.94" y="331.21" as="targetPoint" />
            <Array as="points">
              <mxPoint x="423" y="219" />
              <mxPoint x="665" y="219" />
            </Array>
          </mxGeometry>
        </mxCell>
        <mxCell id="Y49ICn9soL3mUIKn1PIk-4" style="edgeStyle=orthogonalEdgeStyle;rounded=0;orthogonalLoop=1;jettySize=auto;html=1;" parent="1" source="1aZD1OsogRXmvRE20P_B-1" target="1aZD1OsogRXmvRE20P_B-4" edge="1">
          <mxGeometry relative="1" as="geometry">
            <Array as="points">
              <mxPoint x="410" y="190" />
              <mxPoint x="600" y="190" />
            </Array>
          </mxGeometry>
        </mxCell>
        <mxCell id="1aZD1OsogRXmvRE20P_B-1" value="Khách hàng" style="rounded=0;whiteSpace=wrap;html=1;" parent="1" vertex="1">
          <mxGeometry x="365" y="240" width="115" height="40" as="geometry" />
        </mxCell>
        <mxCell id="1aZD1OsogRXmvRE20P_B-2" value="Chủ trọ" style="rounded=0;whiteSpace=wrap;html=1;" parent="1" vertex="1">
          <mxGeometry x="60" y="210" width="100" height="50" as="geometry" />
        </mxCell>
        <mxCell id="1aZD1OsogRXmvRE20P_B-56" style="edgeStyle=orthogonalEdgeStyle;rounded=0;orthogonalLoop=1;jettySize=auto;html=1;entryX=1;entryY=0.5;entryDx=0;entryDy=0;" parent="1" source="1aZD1OsogRXmvRE20P_B-4" target="1aZD1OsogRXmvRE20P_B-50" edge="1">
          <mxGeometry relative="1" as="geometry">
            <Array as="points">
              <mxPoint x="730" y="345" />
              <mxPoint x="730" y="465" />
            </Array>
          </mxGeometry>
        </mxCell>
        <mxCell id="1aZD1OsogRXmvRE20P_B-58" style="edgeStyle=orthogonalEdgeStyle;rounded=0;orthogonalLoop=1;jettySize=auto;html=1;entryX=1;entryY=0.5;entryDx=0;entryDy=0;" parent="1" source="1aZD1OsogRXmvRE20P_B-4" target="1aZD1OsogRXmvRE20P_B-52" edge="1">
          <mxGeometry relative="1" as="geometry">
            <Array as="points">
              <mxPoint x="750" y="345" />
              <mxPoint x="750" y="500" />
            </Array>
          </mxGeometry>
        </mxCell>
        <mxCell id="1aZD1OsogRXmvRE20P_B-4" value="1.0" style="swimlane;fontStyle=0;childLayout=stackLayout;horizontal=1;startSize=20;fillColor=#ffffff;horizontalStack=0;resizeParent=1;resizeParentMax=0;resizeLast=0;collapsible=0;marginBottom=0;swimlaneFillColor=#ffffff;rounded=1;glass=0;arcSize=50;" parent="1" vertex="1">
          <mxGeometry x="580" y="320" width="85" height="50" as="geometry" />
        </mxCell>
        <mxCell id="1aZD1OsogRXmvRE20P_B-12" value="Quản lí thuê nhà" style="text;html=1;align=center;verticalAlign=middle;whiteSpace=wrap;rounded=0;" parent="1aZD1OsogRXmvRE20P_B-4" vertex="1">
          <mxGeometry y="20" width="85" height="30" as="geometry" />
        </mxCell>
        <mxCell id="Y49ICn9soL3mUIKn1PIk-7" style="edgeStyle=orthogonalEdgeStyle;rounded=0;orthogonalLoop=1;jettySize=auto;html=1;entryX=0.75;entryY=1;entryDx=0;entryDy=0;" parent="1" source="1aZD1OsogRXmvRE20P_B-13" target="1aZD1OsogRXmvRE20P_B-24" edge="1">
          <mxGeometry relative="1" as="geometry">
            <Array as="points">
              <mxPoint x="130" y="810" />
              <mxPoint x="678" y="810" />
            </Array>
          </mxGeometry>
        </mxCell>
        <mxCell id="Y49ICn9soL3mUIKn1PIk-43" style="edgeStyle=orthogonalEdgeStyle;rounded=0;orthogonalLoop=1;jettySize=auto;html=1;entryX=0.25;entryY=0;entryDx=0;entryDy=0;" parent="1" source="1aZD1OsogRXmvRE20P_B-13" target="yD9X1X1SuLmKjkcs-DvC-13" edge="1">
          <mxGeometry relative="1" as="geometry">
            <Array as="points">
              <mxPoint x="160" y="440" />
              <mxPoint x="26" y="440" />
            </Array>
          </mxGeometry>
        </mxCell>
        <mxCell id="Y49ICn9soL3mUIKn1PIk-44" style="edgeStyle=orthogonalEdgeStyle;rounded=0;orthogonalLoop=1;jettySize=auto;html=1;entryX=0;entryY=0.5;entryDx=0;entryDy=0;" parent="1" source="1aZD1OsogRXmvRE20P_B-13" target="DDauoUN82rla9Vkt90J--4" edge="1">
          <mxGeometry relative="1" as="geometry">
            <Array as="points">
              <mxPoint x="185" y="420" />
              <mxPoint x="-70" y="420" />
              <mxPoint x="-70" y="535" />
            </Array>
          </mxGeometry>
        </mxCell>
        <mxCell id="1aZD1OsogRXmvRE20P_B-13" value="4.0" style="swimlane;fontStyle=0;childLayout=stackLayout;horizontal=1;startSize=20;fillColor=#ffffff;horizontalStack=0;resizeParent=1;resizeParentMax=0;resizeLast=0;collapsible=0;marginBottom=0;swimlaneFillColor=#ffffff;rounded=1;glass=0;arcSize=50;" parent="1" vertex="1">
          <mxGeometry x="110" y="460" width="150" height="50" as="geometry" />
        </mxCell>
        <mxCell id="1aZD1OsogRXmvRE20P_B-14" value="Quản lí tài sản" style="text;html=1;align=center;verticalAlign=middle;whiteSpace=wrap;rounded=0;" parent="1aZD1OsogRXmvRE20P_B-13" vertex="1">
          <mxGeometry y="20" width="150" height="30" as="geometry" />
        </mxCell>
        <mxCell id="1aZD1OsogRXmvRE20P_B-73" style="edgeStyle=orthogonalEdgeStyle;rounded=0;orthogonalLoop=1;jettySize=auto;html=1;entryX=0;entryY=0.5;entryDx=0;entryDy=0;" parent="1" source="1aZD1OsogRXmvRE20P_B-15" target="1aZD1OsogRXmvRE20P_B-60" edge="1">
          <mxGeometry relative="1" as="geometry">
            <mxPoint x="400" y="680" as="targetPoint" />
          </mxGeometry>
        </mxCell>
        <mxCell id="1aZD1OsogRXmvRE20P_B-15" value="3.0" style="swimlane;fontStyle=0;childLayout=stackLayout;horizontal=1;startSize=20;fillColor=#ffffff;horizontalStack=0;resizeParent=1;resizeParentMax=0;resizeLast=0;collapsible=0;marginBottom=0;swimlaneFillColor=#ffffff;rounded=1;glass=0;arcSize=50;" parent="1" vertex="1">
          <mxGeometry x="275" y="650" width="90" height="50" as="geometry" />
        </mxCell>
        <mxCell id="1aZD1OsogRXmvRE20P_B-17" value="Quản lí khách hàng" style="text;html=1;align=center;verticalAlign=middle;whiteSpace=wrap;rounded=0;" parent="1aZD1OsogRXmvRE20P_B-15" vertex="1">
          <mxGeometry y="20" width="90" height="30" as="geometry" />
        </mxCell>
        <mxCell id="1aZD1OsogRXmvRE20P_B-65" style="edgeStyle=orthogonalEdgeStyle;rounded=0;orthogonalLoop=1;jettySize=auto;html=1;entryX=1;entryY=0.5;entryDx=0;entryDy=0;" parent="1" source="1aZD1OsogRXmvRE20P_B-23" target="1aZD1OsogRXmvRE20P_B-54" edge="1">
          <mxGeometry relative="1" as="geometry" />
        </mxCell>
        <mxCell id="1aZD1OsogRXmvRE20P_B-66" style="edgeStyle=orthogonalEdgeStyle;rounded=0;orthogonalLoop=1;jettySize=auto;html=1;entryX=1;entryY=0.25;entryDx=0;entryDy=0;" parent="1" source="1aZD1OsogRXmvRE20P_B-23" target="1aZD1OsogRXmvRE20P_B-64" edge="1">
          <mxGeometry relative="1" as="geometry">
            <Array as="points">
              <mxPoint x="640" y="568" />
            </Array>
          </mxGeometry>
        </mxCell>
        <mxCell id="1aZD1OsogRXmvRE20P_B-68" style="edgeStyle=orthogonalEdgeStyle;rounded=0;orthogonalLoop=1;jettySize=auto;html=1;entryX=0.5;entryY=0;entryDx=0;entryDy=0;" parent="1" source="1aZD1OsogRXmvRE20P_B-23" target="1aZD1OsogRXmvRE20P_B-60" edge="1">
          <mxGeometry relative="1" as="geometry">
            <mxPoint x="510" y="630" as="targetPoint" />
          </mxGeometry>
        </mxCell>
        <mxCell id="Y49ICn9soL3mUIKn1PIk-48" style="edgeStyle=orthogonalEdgeStyle;rounded=0;orthogonalLoop=1;jettySize=auto;html=1;exitX=0;exitY=0.25;exitDx=0;exitDy=0;" parent="1" source="1aZD1OsogRXmvRE20P_B-23" target="Y49ICn9soL3mUIKn1PIk-2" edge="1">
          <mxGeometry relative="1" as="geometry">
            <Array as="points">
              <mxPoint x="610" y="620" />
              <mxPoint x="600" y="620" />
              <mxPoint x="600" y="600" />
              <mxPoint x="430" y="600" />
              <mxPoint x="430" y="585" />
            </Array>
          </mxGeometry>
        </mxCell>
        <mxCell id="1aZD1OsogRXmvRE20P_B-23" value="2.0" style="swimlane;fontStyle=0;childLayout=stackLayout;horizontal=1;startSize=20;fillColor=#ffffff;horizontalStack=0;resizeParent=1;resizeParentMax=0;resizeLast=0;collapsible=0;marginBottom=0;swimlaneFillColor=#ffffff;rounded=1;glass=0;arcSize=50;" parent="1" vertex="1">
          <mxGeometry x="610" y="605" width="90" height="50" as="geometry" />
        </mxCell>
        <mxCell id="1aZD1OsogRXmvRE20P_B-24" value="Quản lí tài chính" style="text;html=1;align=center;verticalAlign=middle;whiteSpace=wrap;rounded=0;" parent="1aZD1OsogRXmvRE20P_B-23" vertex="1">
          <mxGeometry y="20" width="90" height="30" as="geometry" />
        </mxCell>
        <mxCell id="1aZD1OsogRXmvRE20P_B-31" value="&lt;font style=&quot;font-size: 9px;&quot;&gt;Yêu cầu thuê nhà&lt;/font&gt;" style="text;html=1;align=center;verticalAlign=middle;whiteSpace=wrap;rounded=0;" parent="1" vertex="1">
          <mxGeometry x="510" y="240" width="90" height="10" as="geometry" />
        </mxCell>
        <mxCell id="1aZD1OsogRXmvRE20P_B-36" value="&lt;font style=&quot;font-size: 9px;&quot;&gt;Hợp đồng&lt;/font&gt;" style="text;html=1;align=center;verticalAlign=middle;whiteSpace=wrap;rounded=0;" parent="1" vertex="1">
          <mxGeometry x="480" y="310" width="90" height="10" as="geometry" />
        </mxCell>
        <mxCell id="1aZD1OsogRXmvRE20P_B-39" value="&lt;font style=&quot;font-size: 9px;&quot;&gt;CCCD, giấy tờ&lt;/font&gt;" style="text;html=1;align=center;verticalAlign=middle;whiteSpace=wrap;rounded=0;" parent="1" vertex="1">
          <mxGeometry x="500" y="270" width="90" height="20" as="geometry" />
        </mxCell>
        <mxCell id="1aZD1OsogRXmvRE20P_B-40" style="edgeStyle=orthogonalEdgeStyle;rounded=0;orthogonalLoop=1;jettySize=auto;html=1;entryX=0.581;entryY=1.009;entryDx=0;entryDy=0;entryPerimeter=0;" parent="1" source="1aZD1OsogRXmvRE20P_B-12" target="1aZD1OsogRXmvRE20P_B-1" edge="1">
          <mxGeometry relative="1" as="geometry" />
        </mxCell>
        <mxCell id="1aZD1OsogRXmvRE20P_B-42" value="&lt;font style=&quot;font-size: 9px;&quot;&gt;Thông báo còn phòng&lt;/font&gt;" style="text;html=1;align=center;verticalAlign=middle;whiteSpace=wrap;rounded=0;" parent="1" vertex="1">
          <mxGeometry x="470" y="340" width="90" height="10" as="geometry" />
        </mxCell>
        <mxCell id="1aZD1OsogRXmvRE20P_B-44" style="edgeStyle=orthogonalEdgeStyle;rounded=0;orthogonalLoop=1;jettySize=auto;html=1;entryX=0.25;entryY=1;entryDx=0;entryDy=0;" parent="1" source="1aZD1OsogRXmvRE20P_B-12" target="1aZD1OsogRXmvRE20P_B-1" edge="1">
          <mxGeometry relative="1" as="geometry">
            <Array as="points">
              <mxPoint x="623" y="390" />
              <mxPoint x="394" y="390" />
            </Array>
          </mxGeometry>
        </mxCell>
        <mxCell id="1aZD1OsogRXmvRE20P_B-45" value="&lt;font style=&quot;font-size: 9px;&quot;&gt;Thông báo không còn phòng&lt;/font&gt;" style="text;html=1;align=center;verticalAlign=middle;whiteSpace=wrap;rounded=0;" parent="1" vertex="1">
          <mxGeometry x="435" y="370" width="120" height="10" as="geometry" />
        </mxCell>
        <mxCell id="1aZD1OsogRXmvRE20P_B-47" value="a." style="html=1;dashed=0;whiteSpace=wrap;shape=mxgraph.dfd.dataStoreID;align=left;spacingLeft=3;points=[[0,0],[0.5,0],[1,0],[0,0.5],[1,0.5],[0,1],[0.5,1],[1,1]];" parent="1" vertex="1">
          <mxGeometry x="565" y="410" width="130" height="30" as="geometry" />
        </mxCell>
        <mxCell id="yD9X1X1SuLmKjkcs-DvC-8" style="edgeStyle=orthogonalEdgeStyle;rounded=0;orthogonalLoop=1;jettySize=auto;html=1;entryX=0.75;entryY=1;entryDx=0;entryDy=0;" parent="1" source="1aZD1OsogRXmvRE20P_B-48" target="1aZD1OsogRXmvRE20P_B-12" edge="1">
          <mxGeometry relative="1" as="geometry">
            <Array as="points">
              <mxPoint x="644" y="390" />
            </Array>
          </mxGeometry>
        </mxCell>
        <mxCell id="1aZD1OsogRXmvRE20P_B-48" value="Danh sách nhà" style="text;html=1;align=center;verticalAlign=middle;whiteSpace=wrap;rounded=0;" parent="1" vertex="1">
          <mxGeometry x="600" y="410" width="90" height="30" as="geometry" />
        </mxCell>
        <mxCell id="H8AvOMiR97W-gZ_kD2Oq-1" style="edgeStyle=orthogonalEdgeStyle;rounded=0;orthogonalLoop=1;jettySize=auto;html=1;" parent="1" source="1aZD1OsogRXmvRE20P_B-49" target="1aZD1OsogRXmvRE20P_B-15" edge="1">
          <mxGeometry relative="1" as="geometry">
            <Array as="points">
              <mxPoint x="740" y="460" />
              <mxPoint x="740" y="770" />
              <mxPoint x="320" y="770" />
            </Array>
          </mxGeometry>
        </mxCell>
        <mxCell id="1aZD1OsogRXmvRE20P_B-49" value="b." style="html=1;dashed=0;whiteSpace=wrap;shape=mxgraph.dfd.dataStoreID;align=left;spacingLeft=3;points=[[0,0],[0.5,0],[1,0],[0,0.5],[1,0.5],[0,1],[0.5,1],[1,1]];" parent="1" vertex="1">
          <mxGeometry x="535" y="450" width="130" height="30" as="geometry" />
        </mxCell>
        <mxCell id="1aZD1OsogRXmvRE20P_B-62" style="edgeStyle=orthogonalEdgeStyle;rounded=0;orthogonalLoop=1;jettySize=auto;html=1;entryX=1;entryY=0.5;entryDx=0;entryDy=0;" parent="1" source="1aZD1OsogRXmvRE20P_B-50" target="1aZD1OsogRXmvRE20P_B-24" edge="1">
          <mxGeometry relative="1" as="geometry">
            <Array as="points">
              <mxPoint x="720" y="470" />
              <mxPoint x="720" y="640" />
            </Array>
          </mxGeometry>
        </mxCell>
        <mxCell id="1aZD1OsogRXmvRE20P_B-50" value="Danh sách khách" style="text;html=1;align=center;verticalAlign=middle;whiteSpace=wrap;rounded=0;" parent="1" vertex="1">
          <mxGeometry x="565" y="450" width="100" height="30" as="geometry" />
        </mxCell>
        <mxCell id="1aZD1OsogRXmvRE20P_B-112" style="edgeStyle=orthogonalEdgeStyle;rounded=0;orthogonalLoop=1;jettySize=auto;html=1;entryX=1;entryY=0.5;entryDx=0;entryDy=0;" parent="1" source="1aZD1OsogRXmvRE20P_B-51" target="1aZD1OsogRXmvRE20P_B-103" edge="1">
          <mxGeometry relative="1" as="geometry">
            <Array as="points">
              <mxPoint x="520" y="440" />
              <mxPoint x="320" y="440" />
              <mxPoint x="320" y="335" />
            </Array>
          </mxGeometry>
        </mxCell>
        <mxCell id="1aZD1OsogRXmvRE20P_B-51" value="c." style="html=1;dashed=0;whiteSpace=wrap;shape=mxgraph.dfd.dataStoreID;align=left;spacingLeft=3;points=[[0,0],[0.5,0],[1,0],[0,0.5],[1,0.5],[0,1],[0.5,1],[1,1]];" parent="1" vertex="1">
          <mxGeometry x="500" y="485" width="150" height="30" as="geometry" />
        </mxCell>
        <mxCell id="yD9X1X1SuLmKjkcs-DvC-17" style="edgeStyle=orthogonalEdgeStyle;rounded=0;orthogonalLoop=1;jettySize=auto;html=1;entryX=0.912;entryY=1;entryDx=0;entryDy=0;entryPerimeter=0;" parent="1" source="1aZD1OsogRXmvRE20P_B-52" target="1aZD1OsogRXmvRE20P_B-12" edge="1">
          <mxGeometry relative="1" as="geometry">
            <Array as="points">
              <mxPoint x="770" y="490" />
              <mxPoint x="770" y="370" />
            </Array>
          </mxGeometry>
        </mxCell>
        <mxCell id="1aZD1OsogRXmvRE20P_B-52" value="Danh sách hợp đồng" style="text;html=1;align=center;verticalAlign=middle;whiteSpace=wrap;rounded=0;" parent="1" vertex="1">
          <mxGeometry x="535" y="485" width="120" height="30" as="geometry" />
        </mxCell>
        <mxCell id="1aZD1OsogRXmvRE20P_B-53" value="d." style="html=1;dashed=0;whiteSpace=wrap;shape=mxgraph.dfd.dataStoreID;align=left;spacingLeft=3;points=[[0,0],[0.5,0],[1,0],[0,0.5],[1,0.5],[0,1],[0.5,1],[1,1]];" parent="1" vertex="1">
          <mxGeometry x="480" y="520" width="150" height="30" as="geometry" />
        </mxCell>
        <mxCell id="1aZD1OsogRXmvRE20P_B-54" value="Phiếu thu" style="text;html=1;align=center;verticalAlign=middle;whiteSpace=wrap;rounded=0;" parent="1" vertex="1">
          <mxGeometry x="510" y="520" width="120" height="30" as="geometry" />
        </mxCell>
        <mxCell id="1aZD1OsogRXmvRE20P_B-55" style="edgeStyle=orthogonalEdgeStyle;rounded=0;orthogonalLoop=1;jettySize=auto;html=1;" parent="1" source="1aZD1OsogRXmvRE20P_B-12" edge="1">
          <mxGeometry relative="1" as="geometry">
            <mxPoint x="700" y="420" as="targetPoint" />
            <Array as="points">
              <mxPoint x="710" y="355" />
              <mxPoint x="710" y="420" />
            </Array>
          </mxGeometry>
        </mxCell>
        <mxCell id="1aZD1OsogRXmvRE20P_B-71" style="edgeStyle=orthogonalEdgeStyle;rounded=0;orthogonalLoop=1;jettySize=auto;html=1;entryX=0.678;entryY=1;entryDx=0;entryDy=0;entryPerimeter=0;" parent="1" source="1aZD1OsogRXmvRE20P_B-60" target="1aZD1OsogRXmvRE20P_B-24" edge="1">
          <mxGeometry relative="1" as="geometry">
            <mxPoint x="670" y="675" as="targetPoint" />
            <Array as="points">
              <mxPoint x="671" y="680" />
            </Array>
          </mxGeometry>
        </mxCell>
        <mxCell id="1aZD1OsogRXmvRE20P_B-76" style="edgeStyle=orthogonalEdgeStyle;rounded=0;orthogonalLoop=1;jettySize=auto;html=1;entryX=0.5;entryY=0;entryDx=0;entryDy=0;" parent="1" source="1aZD1OsogRXmvRE20P_B-60" target="1aZD1OsogRXmvRE20P_B-15" edge="1">
          <mxGeometry relative="1" as="geometry">
            <mxPoint x="390" y="620" as="targetPoint" />
            <Array as="points">
              <mxPoint x="470" y="630" />
              <mxPoint x="320" y="630" />
            </Array>
          </mxGeometry>
        </mxCell>
        <mxCell id="1aZD1OsogRXmvRE20P_B-60" value="Khách hàng" style="rounded=0;whiteSpace=wrap;html=1;" parent="1" vertex="1">
          <mxGeometry x="445" y="655" width="115" height="40" as="geometry" />
        </mxCell>
        <mxCell id="1aZD1OsogRXmvRE20P_B-63" value="e." style="html=1;dashed=0;whiteSpace=wrap;shape=mxgraph.dfd.dataStoreID;align=left;spacingLeft=3;points=[[0,0],[0.5,0],[1,0],[0,0.5],[1,0.5],[0,1],[0.5,1],[1,1]];" parent="1" vertex="1">
          <mxGeometry x="450" y="560" width="150" height="30" as="geometry" />
        </mxCell>
        <mxCell id="1aZD1OsogRXmvRE20P_B-64" value="Danh sách tiền nhà" style="text;html=1;align=center;verticalAlign=middle;whiteSpace=wrap;rounded=0;" parent="1" vertex="1">
          <mxGeometry x="480" y="560" width="120" height="30" as="geometry" />
        </mxCell>
        <mxCell id="1aZD1OsogRXmvRE20P_B-67" style="edgeStyle=orthogonalEdgeStyle;rounded=0;orthogonalLoop=1;jettySize=auto;html=1;entryX=0.822;entryY=0.047;entryDx=0;entryDy=0;entryPerimeter=0;" parent="1" source="1aZD1OsogRXmvRE20P_B-52" target="1aZD1OsogRXmvRE20P_B-23" edge="1">
          <mxGeometry relative="1" as="geometry">
            <Array as="points">
              <mxPoint x="684" y="510" />
            </Array>
          </mxGeometry>
        </mxCell>
        <mxCell id="1aZD1OsogRXmvRE20P_B-69" value="&lt;font style=&quot;font-size: 10px;&quot;&gt;Phiếu thu&lt;/font&gt;" style="text;html=1;align=center;verticalAlign=middle;whiteSpace=wrap;rounded=0;" parent="1" vertex="1">
          <mxGeometry x="525" y="607.5" width="60" height="22.5" as="geometry" />
        </mxCell>
        <mxCell id="1aZD1OsogRXmvRE20P_B-72" value="&lt;font style=&quot;font-size: 9px;&quot;&gt;Thanh toán phiếu thu&lt;/font&gt;" style="text;html=1;align=center;verticalAlign=middle;whiteSpace=wrap;rounded=0;" parent="1" vertex="1">
          <mxGeometry x="557.5" y="655" width="95" height="20" as="geometry" />
        </mxCell>
        <mxCell id="1aZD1OsogRXmvRE20P_B-74" value="&lt;font style=&quot;font-size: 9px;&quot;&gt;Thông báo ưu đãi&lt;/font&gt;" style="text;html=1;align=center;verticalAlign=middle;whiteSpace=wrap;rounded=0;" parent="1" vertex="1">
          <mxGeometry x="372.5" y="640" width="55" height="30" as="geometry" />
        </mxCell>
        <mxCell id="1aZD1OsogRXmvRE20P_B-77" value="&lt;font style=&quot;font-size: 9px;&quot;&gt;Thông tin hỗ trợ&lt;/font&gt;" style="text;html=1;align=center;verticalAlign=middle;whiteSpace=wrap;rounded=0;" parent="1" vertex="1">
          <mxGeometry x="330" y="610" width="120" height="25" as="geometry" />
        </mxCell>
        <mxCell id="1aZD1OsogRXmvRE20P_B-85" value="&lt;font style=&quot;font-size: 9px;&quot;&gt;Thông tin bảo trì&lt;/font&gt;" style="text;html=1;align=center;verticalAlign=middle;whiteSpace=wrap;rounded=0;rotation=90;" parent="1" vertex="1">
          <mxGeometry x="205" y="607.5" width="90" height="30" as="geometry" />
        </mxCell>
        <mxCell id="1aZD1OsogRXmvRE20P_B-87" style="edgeStyle=orthogonalEdgeStyle;rounded=0;orthogonalLoop=1;jettySize=auto;html=1;" parent="1" source="1aZD1OsogRXmvRE20P_B-14" target="1aZD1OsogRXmvRE20P_B-60" edge="1">
          <mxGeometry relative="1" as="geometry">
            <Array as="points">
              <mxPoint x="220" y="720" />
              <mxPoint x="503" y="720" />
            </Array>
          </mxGeometry>
        </mxCell>
        <mxCell id="1aZD1OsogRXmvRE20P_B-88" value="&lt;font style=&quot;font-size: 9px;&quot;&gt;Biên bản bảo trì&lt;/font&gt;" style="text;html=1;align=center;verticalAlign=middle;whiteSpace=wrap;rounded=0;" parent="1" vertex="1">
          <mxGeometry x="360" y="700" width="100" height="15" as="geometry" />
        </mxCell>
        <mxCell id="1aZD1OsogRXmvRE20P_B-90" value="&lt;font style=&quot;font-size: 9px;&quot;&gt;Thông tin sự cố&lt;/font&gt;" style="text;html=1;align=center;verticalAlign=middle;whiteSpace=wrap;rounded=0;rotation=90;" parent="1" vertex="1">
          <mxGeometry x="170" y="575" width="80" height="20" as="geometry" />
        </mxCell>
        <mxCell id="1aZD1OsogRXmvRE20P_B-92" value="&lt;font style=&quot;font-size: 9px;&quot;&gt;Biên bản sự cố&lt;/font&gt;" style="text;html=1;align=center;verticalAlign=middle;whiteSpace=wrap;rounded=0;" parent="1" vertex="1">
          <mxGeometry x="320" y="730" width="92.5" height="20" as="geometry" />
        </mxCell>
        <mxCell id="1aZD1OsogRXmvRE20P_B-94" value="&lt;font style=&quot;font-size: 9px;&quot;&gt;Hóa đơn bồi thường sự cố&lt;/font&gt;" style="text;html=1;align=center;verticalAlign=middle;whiteSpace=wrap;rounded=0;" parent="1" vertex="1">
          <mxGeometry x="190" y="770" width="120" height="20" as="geometry" />
        </mxCell>
        <mxCell id="1aZD1OsogRXmvRE20P_B-95" value="f." style="html=1;dashed=0;whiteSpace=wrap;shape=mxgraph.dfd.dataStoreID;align=left;spacingLeft=3;points=[[0,0],[0.5,0],[1,0],[0,0.5],[1,0.5],[0,1],[0.5,1],[1,1]];" parent="1" vertex="1">
          <mxGeometry x="300" y="470" width="150" height="30" as="geometry" />
        </mxCell>
        <mxCell id="1aZD1OsogRXmvRE20P_B-114" style="edgeStyle=orthogonalEdgeStyle;rounded=0;orthogonalLoop=1;jettySize=auto;html=1;entryX=0.75;entryY=1;entryDx=0;entryDy=0;" parent="1" source="1aZD1OsogRXmvRE20P_B-96" target="1aZD1OsogRXmvRE20P_B-103" edge="1">
          <mxGeometry relative="1" as="geometry">
            <Array as="points">
              <mxPoint x="360" y="460" />
              <mxPoint x="280" y="460" />
              <mxPoint x="280" y="370" />
              <mxPoint x="194" y="370" />
            </Array>
          </mxGeometry>
        </mxCell>
        <mxCell id="1aZD1OsogRXmvRE20P_B-96" value="Biên bản sự cố" style="text;html=1;align=center;verticalAlign=middle;whiteSpace=wrap;rounded=0;" parent="1" vertex="1">
          <mxGeometry x="325" y="470" width="120" height="30" as="geometry" />
        </mxCell>
        <mxCell id="yD9X1X1SuLmKjkcs-DvC-6" style="edgeStyle=orthogonalEdgeStyle;rounded=0;orthogonalLoop=1;jettySize=auto;html=1;entryX=0.5;entryY=1;entryDx=0;entryDy=0;" parent="1" source="1aZD1OsogRXmvRE20P_B-102" target="1aZD1OsogRXmvRE20P_B-116" edge="1">
          <mxGeometry relative="1" as="geometry">
            <Array as="points">
              <mxPoint x="173" y="280" />
              <mxPoint x="275" y="280" />
            </Array>
          </mxGeometry>
        </mxCell>
        <mxCell id="0kfnK0S1R64oep1nQxYQ-11" style="edgeStyle=orthogonalEdgeStyle;rounded=0;orthogonalLoop=1;jettySize=auto;html=1;entryX=0.5;entryY=1;entryDx=0;entryDy=0;" parent="1" source="1aZD1OsogRXmvRE20P_B-102" target="1aZD1OsogRXmvRE20P_B-2" edge="1">
          <mxGeometry relative="1" as="geometry">
            <Array as="points">
              <mxPoint x="150" y="280" />
              <mxPoint x="110" y="280" />
            </Array>
          </mxGeometry>
        </mxCell>
        <mxCell id="1aZD1OsogRXmvRE20P_B-102" value="5.0" style="swimlane;fontStyle=0;childLayout=stackLayout;horizontal=1;startSize=20;fillColor=#ffffff;horizontalStack=0;resizeParent=1;resizeParentMax=0;resizeLast=0;collapsible=0;marginBottom=0;swimlaneFillColor=#ffffff;rounded=1;glass=0;arcSize=50;" parent="1" vertex="1">
          <mxGeometry x="130" y="300" width="85" height="50" as="geometry" />
        </mxCell>
        <mxCell id="1aZD1OsogRXmvRE20P_B-103" value="Báo cáo" style="text;html=1;align=center;verticalAlign=middle;whiteSpace=wrap;rounded=0;" parent="1aZD1OsogRXmvRE20P_B-102" vertex="1">
          <mxGeometry y="20" width="85" height="30" as="geometry" />
        </mxCell>
        <mxCell id="1aZD1OsogRXmvRE20P_B-110" style="edgeStyle=orthogonalEdgeStyle;rounded=0;orthogonalLoop=1;jettySize=auto;html=1;entryX=0.976;entryY=0.153;entryDx=0;entryDy=0;entryPerimeter=0;" parent="1" source="1aZD1OsogRXmvRE20P_B-47" target="1aZD1OsogRXmvRE20P_B-102" edge="1">
          <mxGeometry relative="1" as="geometry">
            <Array as="points">
              <mxPoint x="630" y="400" />
              <mxPoint x="360" y="400" />
              <mxPoint x="360" y="308" />
            </Array>
          </mxGeometry>
        </mxCell>
        <mxCell id="1aZD1OsogRXmvRE20P_B-111" style="edgeStyle=orthogonalEdgeStyle;rounded=0;orthogonalLoop=1;jettySize=auto;html=1;entryX=1.055;entryY=0.144;entryDx=0;entryDy=0;entryPerimeter=0;" parent="1" source="1aZD1OsogRXmvRE20P_B-49" target="1aZD1OsogRXmvRE20P_B-103" edge="1">
          <mxGeometry relative="1" as="geometry">
            <Array as="points">
              <mxPoint x="540" y="420" />
              <mxPoint x="340" y="420" />
              <mxPoint x="340" y="324" />
            </Array>
          </mxGeometry>
        </mxCell>
        <mxCell id="1aZD1OsogRXmvRE20P_B-113" style="edgeStyle=orthogonalEdgeStyle;rounded=0;orthogonalLoop=1;jettySize=auto;html=1;entryX=0.922;entryY=1.011;entryDx=0;entryDy=0;entryPerimeter=0;" parent="1" source="1aZD1OsogRXmvRE20P_B-63" target="1aZD1OsogRXmvRE20P_B-103" edge="1">
          <mxGeometry relative="1" as="geometry">
            <Array as="points">
              <mxPoint x="470" y="450" />
              <mxPoint x="300" y="450" />
              <mxPoint x="300" y="350" />
            </Array>
          </mxGeometry>
        </mxCell>
        <mxCell id="1aZD1OsogRXmvRE20P_B-115" value="L." style="html=1;dashed=0;whiteSpace=wrap;shape=mxgraph.dfd.dataStoreID;align=left;spacingLeft=3;points=[[0,0],[0.5,0],[1,0],[0,0.5],[1,0.5],[0,1],[0.5,1],[1,1]];" parent="1" vertex="1">
          <mxGeometry x="185" y="215" width="150" height="30" as="geometry" />
        </mxCell>
        <mxCell id="1aZD1OsogRXmvRE20P_B-116" value="Danh sách báo cáo" style="text;html=1;align=center;verticalAlign=middle;whiteSpace=wrap;rounded=0;" parent="1" vertex="1">
          <mxGeometry x="220" y="215" width="110" height="30" as="geometry" />
        </mxCell>
        <mxCell id="yD9X1X1SuLmKjkcs-DvC-3" style="edgeStyle=orthogonalEdgeStyle;rounded=0;orthogonalLoop=1;jettySize=auto;html=1;entryX=0.896;entryY=1.075;entryDx=0;entryDy=0;entryPerimeter=0;" parent="1" source="1aZD1OsogRXmvRE20P_B-4" target="1aZD1OsogRXmvRE20P_B-1" edge="1">
          <mxGeometry relative="1" as="geometry">
            <Array as="points">
              <mxPoint x="468" y="330" />
            </Array>
          </mxGeometry>
        </mxCell>
        <mxCell id="yD9X1X1SuLmKjkcs-DvC-10" value="&lt;span style=&quot;font-size: 9px;&quot;&gt;Yêu cầu gia hạn hợp đồng&lt;/span&gt;" style="text;html=1;align=center;verticalAlign=middle;whiteSpace=wrap;rounded=0;" parent="1" vertex="1">
          <mxGeometry x="460" y="205" width="110" height="10" as="geometry" />
        </mxCell>
        <mxCell id="Y49ICn9soL3mUIKn1PIk-50" style="edgeStyle=orthogonalEdgeStyle;rounded=0;orthogonalLoop=1;jettySize=auto;html=1;entryX=0;entryY=0.5;entryDx=0;entryDy=0;" parent="1" source="yD9X1X1SuLmKjkcs-DvC-12" target="1aZD1OsogRXmvRE20P_B-102" edge="1">
          <mxGeometry relative="1" as="geometry">
            <Array as="points">
              <mxPoint x="-30" y="495" />
              <mxPoint x="-30" y="325" />
            </Array>
          </mxGeometry>
        </mxCell>
        <mxCell id="yD9X1X1SuLmKjkcs-DvC-12" value="g." style="html=1;dashed=0;whiteSpace=wrap;shape=mxgraph.dfd.dataStoreID;align=left;spacingLeft=3;points=[[0,0],[0.5,0],[1,0],[0,0.5],[1,0.5],[0,1],[0.5,1],[1,1]];" parent="1" vertex="1">
          <mxGeometry x="-20" y="480" width="110" height="30" as="geometry" />
        </mxCell>
        <mxCell id="yD9X1X1SuLmKjkcs-DvC-13" value="Hoá đơn bồi thường sự cố" style="text;html=1;align=center;verticalAlign=middle;whiteSpace=wrap;rounded=0;" parent="1" vertex="1">
          <mxGeometry y="480" width="105" height="30" as="geometry" />
        </mxCell>
        <mxCell id="DDauoUN82rla9Vkt90J--3" value="&lt;font size=&quot;1&quot;&gt;Hoá đơn chi phí bảo trì&lt;/font&gt;" style="text;html=1;align=center;verticalAlign=middle;whiteSpace=wrap;rounded=0;" parent="1" vertex="1">
          <mxGeometry x="540" y="790" width="120" height="20" as="geometry" />
        </mxCell>
        <mxCell id="Y49ICn9soL3mUIKn1PIk-51" style="edgeStyle=orthogonalEdgeStyle;rounded=0;orthogonalLoop=1;jettySize=auto;html=1;entryX=0;entryY=0.75;entryDx=0;entryDy=0;" parent="1" source="DDauoUN82rla9Vkt90J--4" target="1aZD1OsogRXmvRE20P_B-103" edge="1">
          <mxGeometry relative="1" as="geometry">
            <Array as="points">
              <mxPoint x="-50" y="343" />
            </Array>
          </mxGeometry>
        </mxCell>
        <mxCell id="DDauoUN82rla9Vkt90J--4" value="h." style="html=1;dashed=0;whiteSpace=wrap;shape=mxgraph.dfd.dataStoreID;align=left;spacingLeft=3;points=[[0,0],[0.5,0],[1,0],[0,0.5],[1,0.5],[0,1],[0.5,1],[1,1]];" parent="1" vertex="1">
          <mxGeometry x="-50" y="520" width="130" height="30" as="geometry" />
        </mxCell>
        <mxCell id="DDauoUN82rla9Vkt90J--7" value="Hoá đơn chi phí bảo trì" style="text;html=1;align=center;verticalAlign=middle;whiteSpace=wrap;rounded=0;" parent="1" vertex="1">
          <mxGeometry x="-12.5" y="520" width="90" height="30" as="geometry" />
        </mxCell>
        <mxCell id="H8AvOMiR97W-gZ_kD2Oq-5" value="i." style="html=1;dashed=0;whiteSpace=wrap;shape=mxgraph.dfd.dataStoreID;align=left;spacingLeft=3;points=[[0,0],[0.5,0],[1,0],[0,0.5],[1,0.5],[0,1],[0.5,1],[1,1]];" parent="1" vertex="1">
          <mxGeometry x="300" y="510" width="150" height="30" as="geometry" />
        </mxCell>
        <mxCell id="H8AvOMiR97W-gZ_kD2Oq-6" value="Báo cáo bảo trì" style="text;html=1;align=center;verticalAlign=middle;whiteSpace=wrap;rounded=0;" parent="1" vertex="1">
          <mxGeometry x="320" y="510" width="120" height="30" as="geometry" />
        </mxCell>
        <mxCell id="H8AvOMiR97W-gZ_kD2Oq-12" value="k." style="html=1;dashed=0;whiteSpace=wrap;shape=mxgraph.dfd.dataStoreID;align=left;spacingLeft=3;points=[[0,0],[0.5,0],[1,0],[0,0.5],[1,0.5],[0,1],[0.5,1],[1,1]];" parent="1" vertex="1">
          <mxGeometry x="-72.5" y="565" width="120" height="30" as="geometry" />
        </mxCell>
        <mxCell id="H8AvOMiR97W-gZ_kD2Oq-13" value="Thông tin tài sản và sinh trắc" style="text;html=1;align=center;verticalAlign=middle;whiteSpace=wrap;rounded=0;" parent="1" vertex="1">
          <mxGeometry x="-40" y="565" width="90" height="30" as="geometry" />
        </mxCell>
        <mxCell id="0kfnK0S1R64oep1nQxYQ-2" value="m." style="html=1;dashed=0;whiteSpace=wrap;shape=mxgraph.dfd.dataStoreID;align=left;spacingLeft=3;points=[[0,0],[0.5,0],[1,0],[0,0.5],[1,0.5],[0,1],[0.5,1],[1,1]];" parent="1" vertex="1">
          <mxGeometry x="-72.5" y="610" width="150" height="30" as="geometry" />
        </mxCell>
        <mxCell id="0kfnK0S1R64oep1nQxYQ-9" style="edgeStyle=orthogonalEdgeStyle;rounded=0;orthogonalLoop=1;jettySize=auto;html=1;entryX=0.25;entryY=1;entryDx=0;entryDy=0;" parent="1" source="0kfnK0S1R64oep1nQxYQ-4" target="1aZD1OsogRXmvRE20P_B-14" edge="1">
          <mxGeometry relative="1" as="geometry" />
        </mxCell>
        <mxCell id="0kfnK0S1R64oep1nQxYQ-4" value="Danh sách hỗ trợ" style="text;html=1;align=center;verticalAlign=middle;whiteSpace=wrap;rounded=0;" parent="1" vertex="1">
          <mxGeometry x="-40" y="612.5" width="110" height="25" as="geometry" />
        </mxCell>
        <mxCell id="Y49ICn9soL3mUIKn1PIk-1" value="n." style="html=1;dashed=0;whiteSpace=wrap;shape=mxgraph.dfd.dataStoreID;align=left;spacingLeft=3;points=[[0,0],[0.5,0],[1,0],[0,0.5],[1,0.5],[0,1],[0.5,1],[1,1]];" parent="1" vertex="1">
          <mxGeometry x="310" y="560" width="100" height="30" as="geometry" />
        </mxCell>
        <mxCell id="Y49ICn9soL3mUIKn1PIk-2" value="Báo cáo tài chính" style="text;html=1;align=center;verticalAlign=middle;whiteSpace=wrap;rounded=0;" parent="1" vertex="1">
          <mxGeometry x="340" y="560" width="70" height="30" as="geometry" />
        </mxCell>
        <mxCell id="Y49ICn9soL3mUIKn1PIk-6" value="&lt;font size=&quot;1&quot;&gt;Đăng kí/ đăng nhập&lt;/font&gt;" style="text;html=1;align=center;verticalAlign=middle;whiteSpace=wrap;rounded=0;" parent="1" vertex="1">
          <mxGeometry x="460" y="170" width="110" height="20" as="geometry" />
        </mxCell>
        <mxCell id="Y49ICn9soL3mUIKn1PIk-17" style="edgeStyle=orthogonalEdgeStyle;rounded=0;orthogonalLoop=1;jettySize=auto;html=1;entryX=0.867;entryY=0.933;entryDx=0;entryDy=0;entryPerimeter=0;" parent="1" source="1aZD1OsogRXmvRE20P_B-15" target="1aZD1OsogRXmvRE20P_B-14" edge="1">
          <mxGeometry relative="1" as="geometry" />
        </mxCell>
        <mxCell id="Y49ICn9soL3mUIKn1PIk-19" style="edgeStyle=orthogonalEdgeStyle;rounded=0;orthogonalLoop=1;jettySize=auto;html=1;entryX=0.593;entryY=0.933;entryDx=0;entryDy=0;entryPerimeter=0;" parent="1" source="1aZD1OsogRXmvRE20P_B-15" target="1aZD1OsogRXmvRE20P_B-14" edge="1">
          <mxGeometry relative="1" as="geometry" />
        </mxCell>
        <mxCell id="Y49ICn9soL3mUIKn1PIk-21" style="edgeStyle=orthogonalEdgeStyle;rounded=0;orthogonalLoop=1;jettySize=auto;html=1;entryX=0.32;entryY=0.937;entryDx=0;entryDy=0;entryPerimeter=0;" parent="1" source="1aZD1OsogRXmvRE20P_B-13" target="1aZD1OsogRXmvRE20P_B-60" edge="1">
          <mxGeometry relative="1" as="geometry">
            <Array as="points">
              <mxPoint x="185" y="750" />
              <mxPoint x="482" y="750" />
            </Array>
          </mxGeometry>
        </mxCell>
        <mxCell id="Y49ICn9soL3mUIKn1PIk-23" style="edgeStyle=orthogonalEdgeStyle;rounded=0;orthogonalLoop=1;jettySize=auto;html=1;entryX=0.678;entryY=1.025;entryDx=0;entryDy=0;entryPerimeter=0;" parent="1" source="1aZD1OsogRXmvRE20P_B-13" target="1aZD1OsogRXmvRE20P_B-60" edge="1">
          <mxGeometry relative="1" as="geometry">
            <Array as="points">
              <mxPoint x="170" y="790" />
              <mxPoint x="523" y="790" />
            </Array>
          </mxGeometry>
        </mxCell>
        <mxCell id="Y49ICn9soL3mUIKn1PIk-28" style="edgeStyle=orthogonalEdgeStyle;rounded=0;orthogonalLoop=1;jettySize=auto;html=1;entryX=0.436;entryY=1.167;entryDx=0;entryDy=0;entryPerimeter=0;" parent="1" source="1aZD1OsogRXmvRE20P_B-17" target="0kfnK0S1R64oep1nQxYQ-4" edge="1">
          <mxGeometry relative="1" as="geometry" />
        </mxCell>
        <mxCell id="Y49ICn9soL3mUIKn1PIk-33" style="edgeStyle=orthogonalEdgeStyle;rounded=0;orthogonalLoop=1;jettySize=auto;html=1;entryX=0.859;entryY=0.933;entryDx=0;entryDy=0;entryPerimeter=0;" parent="1" source="H8AvOMiR97W-gZ_kD2Oq-5" target="1aZD1OsogRXmvRE20P_B-103" edge="1">
          <mxGeometry relative="1" as="geometry">
            <Array as="points">
              <mxPoint x="270" y="530" />
              <mxPoint x="270" y="360" />
              <mxPoint x="203" y="360" />
            </Array>
          </mxGeometry>
        </mxCell>
        <mxCell id="Y49ICn9soL3mUIKn1PIk-47" style="edgeStyle=orthogonalEdgeStyle;rounded=0;orthogonalLoop=1;jettySize=auto;html=1;entryX=1;entryY=0.5;entryDx=0;entryDy=0;" parent="1" source="1aZD1OsogRXmvRE20P_B-14" target="H8AvOMiR97W-gZ_kD2Oq-13" edge="1">
          <mxGeometry relative="1" as="geometry">
            <Array as="points">
              <mxPoint x="120" y="580" />
            </Array>
          </mxGeometry>
        </mxCell>
        <mxCell id="Y49ICn9soL3mUIKn1PIk-49" style="edgeStyle=orthogonalEdgeStyle;rounded=0;orthogonalLoop=1;jettySize=auto;html=1;entryX=0.622;entryY=1.044;entryDx=0;entryDy=0;entryPerimeter=0;" parent="1" source="Y49ICn9soL3mUIKn1PIk-1" target="1aZD1OsogRXmvRE20P_B-103" edge="1">
          <mxGeometry relative="1" as="geometry">
            <Array as="points">
              <mxPoint x="290" y="570" />
              <mxPoint x="290" y="400" />
              <mxPoint x="183" y="400" />
            </Array>
          </mxGeometry>
        </mxCell>
      </root>
    </mxGraphModel>
  </diagram>
</mxfile>
